<svg width="40" height="32" viewBox="0 0 40 32" fill="none" xmlns="http://www.w3.org/2000/svg">
<path d="M28.0555 30.5V27.2778C28.0555 25.5686 27.3766 23.9294 26.168 22.7209C24.9594 21.5123 23.3203 20.8333 21.6111 20.8333H8.72222C7.01304 20.8333 5.37387 21.5123 4.16531 22.7209C2.95674 23.9294 2.27777 25.5686 2.27777 27.2778V30.5M37.7222 30.5V27.2778C37.7211 25.8499 37.2459 24.4628 36.3711 23.3343C35.4963 22.2058 34.2714 21.3997 32.8889 21.0428M26.4444 1.70944C27.8307 2.06437 29.0593 2.87057 29.9367 4.00094C30.8142 5.13132 31.2904 6.52156 31.2904 7.9525C31.2904 9.38344 30.8142 10.7737 29.9367 11.9041C29.0593 13.0344 27.8307 13.8406 26.4444 14.1956M21.6111 7.94444C21.6111 11.5036 18.7258 14.3889 15.1667 14.3889C11.6075 14.3889 8.72222 11.5036 8.72222 7.94444C8.72222 4.38528 11.6075 1.5 15.1667 1.5C18.7258 1.5 21.6111 4.38528 21.6111 7.94444Z" stroke="white" stroke-width="3" stroke-linecap="round" stroke-linejoin="round"/>
</svg>
