<svg width="94" height="96" viewBox="0 0 94 96" fill="none" xmlns="http://www.w3.org/2000/svg">
<rect x="11.875" y="0.5" width="70" height="70" rx="20" fill="#E1E4EA"/>
<path fill-rule="evenodd" clip-rule="evenodd" d="M32.2331 14.8232C31.5633 14.8232 30.9748 15.2672 30.7908 15.9112L28.297 24.6395L25.8032 33.3678L23.3094 42.0961C23.1801 42.5487 23.2707 43.0357 23.5541 43.4115C23.8376 43.7872 24.281 44.0082 24.7517 44.0082H33.48H42.2083H44.0884L44.0884 52.1484H42.3756H24.9363C24.1079 52.1484 23.4363 52.82 23.4363 53.6484C23.4363 54.4769 24.1079 55.1484 24.9363 55.1484H42.3756H45.2976C45.3917 55.1669 45.4889 55.1766 45.5884 55.1766C45.6878 55.1766 45.785 55.1669 45.8791 55.1484H56.4028H62.0186C62.847 55.1484 63.5186 54.4769 63.5186 53.6484V44.4424L70.9473 16.7122C71.1616 15.9119 70.6867 15.0895 69.8865 14.8751C69.0863 14.6607 68.2638 15.1356 68.0494 15.9359L60.5697 43.8568C60.5358 43.9834 60.5186 44.1139 60.5186 44.245V52.1484H57.9028V44.4424L65.3315 16.7122C65.5458 15.9119 65.0709 15.0895 64.2707 14.8751C63.4705 14.6607 62.648 15.1356 62.4336 15.9359L54.9539 43.8568C54.92 43.9834 54.9028 44.1139 54.9028 44.245V52.1484H47.0884L47.0884 44.0082H50.9366C51.6063 44.0082 52.1949 43.5642 52.3789 42.9203L54.8727 34.1919L57.3665 25.4636L59.8603 16.7353C59.9896 16.2827 59.899 15.7957 59.6155 15.4199C59.3321 15.0442 58.8887 14.8232 58.418 14.8232H49.6897H40.9614H32.2331ZM31.7279 23.5516L33.3645 17.8232H38.9728L37.3361 23.5516H31.7279ZM40.4562 23.5516L42.0928 17.8232H47.7011L46.0644 23.5516H40.4562ZM49.1845 23.5516L50.8211 17.8232H56.4294L54.7927 23.5516H49.1845ZM48.3273 26.5516H53.9356L52.2989 32.2799H46.6907L48.3273 26.5516ZM45.8335 35.2799H51.4418L49.8051 41.0082H44.1969L45.8335 35.2799ZM42.7135 35.2799L41.0768 41.0082H35.4686L37.1052 35.2799H42.7135ZM33.9852 35.2799L32.3485 41.0082H26.7403L28.3769 35.2799H33.9852ZM34.8423 32.2799H29.2341L30.8707 26.5516H36.479L34.8423 32.2799ZM37.9624 32.2799L39.599 26.5516H45.2073L43.5706 32.2799H37.9624Z" fill="#141619"/>
<rect x="28.875" y="60" width="36" height="36" rx="18" fill="#004AAD"/>
<path d="M48.9702 69.5L40.5895 78H53.1606L44.7798 86.5" stroke="white" stroke-width="2" stroke-linecap="round" stroke-linejoin="round"/>
</svg>
