<svg width="94" height="96" viewBox="0 0 94 96" fill="none" xmlns="http://www.w3.org/2000/svg">
<rect x="11.625" y="0.5" width="70" height="70" rx="20" fill="#E1E4EA"/>
<path d="M69.5885 57.0629C66.4345 57.0629 67.0317 52.6018 63.8776 52.6018C60.7236 52.6018 61.3208 57.0629 58.1667 57.0629C55.0127 57.0629 55.6099 52.6018 52.4559 52.6018C49.3018 52.6018 49.899 57.0629 46.745 57.0629C43.591 57.0629 44.1881 52.6018 41.0341 52.6018C37.8801 52.6018 38.4773 57.0629 35.3232 57.0629C32.1692 57.0629 32.7664 52.6018 29.6124 52.6018C26.4583 52.6018 27.0555 57.0629 23.9015 57.0629" stroke="#141619" stroke-width="3"/>
<path d="M69.5885 47.6018C66.4345 47.6018 67.0317 43.1407 63.8776 43.1407C60.7236 43.1407 61.3208 47.6018 58.1667 47.6018C55.0127 47.6018 55.6099 43.1407 52.4559 43.1407C49.3018 43.1407 49.899 47.6018 46.745 47.6018C43.591 47.6018 44.1881 43.1407 41.0341 43.1407C37.8801 43.1407 38.4773 47.6018 35.3232 47.6018C32.1692 47.6018 32.7664 43.1407 29.6124 43.1407C26.4583 43.1407 27.0555 47.6018 23.9015 47.6018" stroke="#141619" stroke-width="3"/>
<mask id="path-4-inside-1_357_1656" fill="white">
<rect x="27.3079" y="31.3323" width="38.8743" height="4.23657" rx="2"/>
</mask>
<rect x="27.3079" y="31.3323" width="38.8743" height="4.23657" rx="2" stroke="#141619" stroke-width="4.23657" mask="url(#path-4-inside-1_357_1656)"/>
<mask id="path-5-inside-2_357_1656" fill="white">
<rect x="30.6534" y="18.1173" width="21.7576" height="16.9973" rx="2"/>
</mask>
<rect x="30.6534" y="18.1173" width="21.7576" height="16.9973" rx="2" stroke="#141619" stroke-width="6" mask="url(#path-5-inside-2_357_1656)"/>
<path d="M52.8931 33.3435H45.8268L50.3531 13.9373H55.5707L59.9595 33.3435H52.8931Z" fill="#E1E4EA" stroke="#141619" stroke-width="3" stroke-linecap="round" stroke-linejoin="round"/>
<path d="M49.7063 20.1404L56.0798 20.1404" stroke="#141619" stroke-width="3" stroke-linecap="round"/>
<path d="M48.1932 26.5624L57.9398 26.5624" stroke="#141619" stroke-width="3" stroke-linecap="round"/>
<line x1="41.5322" y1="26.1035" x2="37.3687" y2="26.1035" stroke="#141619" stroke-width="3"/>
<path d="M56.6305 35.5688L56.6305 46.972" stroke="#141619" stroke-width="3"/>
<path d="M36.8596 35.5688L36.8596 46.972" stroke="#141619" stroke-width="3"/>
<path d="M36.4487 43.2606L46.7452 32.9642L57.0415 43.2606" stroke="#141619" stroke-width="3"/>
<rect x="28.625" y="60" width="36" height="36" rx="18" fill="#004AAD"/>
<path d="M46.6206 69.5L51.6013 74.4807C52.5863 75.465 53.2572 76.7194 53.5292 78.0851C53.8012 79.4508 53.6621 80.8665 53.1294 82.1531C52.5967 83.4398 51.6944 84.5395 50.5366 85.3133C49.3788 86.087 48.0176 86.5 46.625 86.5C45.2325 86.5 43.8712 86.087 42.7134 85.3133C41.5556 84.5395 40.6533 83.4398 40.1206 82.1531C39.5879 80.8665 39.4488 79.4508 39.7208 78.0851C39.9928 76.7194 40.6638 75.465 41.6488 74.4807L46.6206 69.5Z" stroke="white" stroke-width="2" stroke-linecap="round" stroke-linejoin="round"/>
</svg>
