<svg width="94" height="96" viewBox="0 0 94 96" fill="none" xmlns="http://www.w3.org/2000/svg">
<rect x="12.125" y="0.5" width="70" height="70" rx="20" fill="#E1E4EA"/>
<path fill-rule="evenodd" clip-rule="evenodd" d="M22.7092 53.9314C22.7092 54.3292 22.8673 54.7107 23.1486 54.992C23.4299 55.2733 23.8114 55.4314 24.2092 55.4314H38.788H67.9454C68.3433 55.4314 68.7248 55.2733 69.0061 54.992C69.2874 54.7107 69.4454 54.3292 69.4454 53.9314V24.7719C69.4454 24.1652 69.08 23.6183 68.5194 23.3861C67.9589 23.1539 67.3137 23.2823 66.8847 23.7113L54.8667 35.7302V24.7719C54.8667 24.1652 54.5012 23.6183 53.9407 23.3861C53.3802 23.1539 52.735 23.2823 52.306 23.7113L40.288 35.7302V16.4407C40.288 16.0428 40.1299 15.6613 39.8486 15.38C39.5673 15.0987 39.1858 14.9407 38.788 14.9407H24.2092C23.3808 14.9407 22.7092 15.6122 22.7092 16.4407V53.9314ZM40.288 52.4314L40.288 39.9729L51.8667 28.3934V39.3516C51.8667 39.9583 52.2322 40.5053 52.7927 40.7375C53.3532 40.9696 53.9984 40.8413 54.4274 40.4123L66.4454 28.3934V52.4314H40.288ZM37.288 39.3516V52.4314H25.7092L25.7092 30.3228L37.288 30.3228V39.3506V39.3516ZM37.288 27.3228L25.7092 27.3228L25.7092 23.7073L37.288 23.7073V27.3228ZM37.288 20.7073V17.9407L25.7092 17.9407V20.7073L37.288 20.7073ZM61.66 44.5588H57.4965V47.5588H61.66V44.5588ZM51.2483 44.5588H55.4119V47.5588H51.2483V44.5588ZM49.1639 44.5588H45.0003V47.5588H49.1639V44.5588Z" fill="#141619"/>
<rect x="29.125" y="60" width="36" height="36" rx="18" fill="#004AAD"/>
<path d="M47.125 80.5909C48.5559 80.5909 49.7159 79.4309 49.7159 78C49.7159 76.5691 48.5559 75.4091 47.125 75.4091C45.6941 75.4091 44.5341 76.5691 44.5341 78C44.5341 79.4309 45.6941 80.5909 47.125 80.5909Z" stroke="white" stroke-width="2" stroke-linecap="round" stroke-linejoin="round"/>
<path d="M53.5159 80.5909C53.4009 80.8514 53.3667 81.1403 53.4175 81.4205C53.4682 81.7007 53.6018 81.9592 53.8009 82.1627L53.8527 82.2145C54.0133 82.375 54.1407 82.5655 54.2276 82.7751C54.3146 82.9848 54.3593 83.2096 54.3593 83.4366C54.3593 83.6636 54.3146 83.8883 54.2276 84.098C54.1407 84.3077 54.0133 84.4982 53.8527 84.6586C53.6923 84.8192 53.5018 84.9466 53.2921 85.0336C53.0824 85.1205 52.8577 85.1652 52.6307 85.1652C52.4037 85.1652 52.1789 85.1205 51.9692 85.0336C51.7596 84.9466 51.5691 84.8192 51.4086 84.6586L51.3568 84.6068C51.1533 84.4077 50.8948 84.2742 50.6146 84.2234C50.3344 84.1726 50.0455 84.2069 49.785 84.3218C49.5296 84.4313 49.3117 84.6131 49.1583 84.8448C49.0048 85.0765 48.9225 85.348 48.9214 85.6259V85.7727C48.9214 86.2308 48.7394 86.6702 48.4155 86.9941C48.0915 87.318 47.6522 87.5 47.1941 87.5C46.736 87.5 46.2967 87.318 45.9727 86.9941C45.6488 86.6702 45.4668 86.2308 45.4668 85.7727V85.695C45.4601 85.4091 45.3676 85.1319 45.2013 84.8993C45.0349 84.6668 44.8025 84.4896 44.5341 84.3909C44.2736 84.2759 43.9847 84.2417 43.7045 84.2925C43.4243 84.3432 43.1658 84.4768 42.9623 84.6759L42.9105 84.7277C42.75 84.8883 42.5595 85.0157 42.3499 85.1026C42.1402 85.1896 41.9154 85.2343 41.6884 85.2343C41.4614 85.2343 41.2367 85.1896 41.027 85.1026C40.8173 85.0157 40.6268 84.8883 40.4664 84.7277C40.3058 84.5673 40.1784 84.3768 40.0914 84.1671C40.0045 83.9574 39.9598 83.7327 39.9598 83.5057C39.9598 83.2787 40.0045 83.0539 40.0914 82.8442C40.1784 82.6346 40.3058 82.4441 40.4664 82.2836L40.5182 82.2318C40.7173 82.0283 40.8508 81.7698 40.9016 81.4896C40.9524 81.2094 40.9181 80.9205 40.8032 80.66C40.6937 80.4046 40.5119 80.1867 40.2802 80.0333C40.0485 79.8798 39.777 79.7975 39.4991 79.7964H39.3523C38.8942 79.7964 38.4548 79.6144 38.1309 79.2905C37.807 78.9665 37.625 78.5272 37.625 78.0691C37.625 77.611 37.807 77.1717 38.1309 76.8477C38.4548 76.5238 38.8942 76.3418 39.3523 76.3418H39.43C39.7159 76.3351 39.9931 76.2426 40.2257 76.0763C40.4582 75.9099 40.6354 75.6775 40.7341 75.4091C40.8491 75.1486 40.8833 74.8597 40.8325 74.5795C40.7818 74.2993 40.6482 74.0408 40.4491 73.8373L40.3973 73.7855C40.2367 73.625 40.1093 73.4345 40.0224 73.2249C39.9354 73.0152 39.8907 72.7904 39.8907 72.5634C39.8907 72.3364 39.9354 72.1117 40.0224 71.902C40.1093 71.6923 40.2367 71.5018 40.3973 71.3414C40.5577 71.1808 40.7482 71.0534 40.9579 70.9664C41.1676 70.8795 41.3923 70.8348 41.6193 70.8348C41.8463 70.8348 42.0711 70.8795 42.2808 70.9664C42.4904 71.0534 42.6809 71.1808 42.8414 71.3414L42.8932 71.3932C43.0967 71.5923 43.3552 71.7258 43.6354 71.7766C43.9156 71.8274 44.2045 71.7931 44.465 71.6782H44.5341C44.7895 71.5687 45.0074 71.3869 45.1608 71.1552C45.3143 70.9235 45.3966 70.652 45.3977 70.3741V70.2273C45.3977 69.7692 45.5797 69.3298 45.9036 69.0059C46.2276 68.682 46.6669 68.5 47.125 68.5C47.5831 68.5 48.0224 68.682 48.3464 69.0059C48.6703 69.3298 48.8523 69.7692 48.8523 70.2273V70.305C48.8534 70.5829 48.9357 70.8544 49.0892 71.0861C49.2426 71.3178 49.4605 71.4996 49.7159 71.6091C49.9764 71.7241 50.2653 71.7583 50.5455 71.7075C50.8257 71.6568 51.0842 71.5232 51.2877 71.3241L51.3395 71.2723C51.5 71.1117 51.6905 70.9843 51.9001 70.8974C52.1098 70.8104 52.3346 70.7657 52.5616 70.7657C52.7886 70.7657 53.0133 70.8104 53.223 70.8974C53.4327 70.9843 53.6232 71.1117 53.7836 71.2723C53.9442 71.4327 54.0716 71.6232 54.1586 71.8329C54.2455 72.0426 54.2902 72.2673 54.2902 72.4943C54.2902 72.7213 54.2455 72.9461 54.1586 73.1558C54.0716 73.3654 53.9442 73.5559 53.7836 73.7164L53.7318 73.7682C53.5327 73.9717 53.3992 74.2302 53.3484 74.5104C53.2976 74.7906 53.3319 75.0795 53.4468 75.34V75.4091C53.5563 75.6645 53.7381 75.8824 53.9698 76.0358C54.2015 76.1893 54.473 76.2716 54.7509 76.2727H54.8977C55.3558 76.2727 55.7952 76.4547 56.1191 76.7786C56.443 77.1026 56.625 77.5419 56.625 78C56.625 78.4581 56.443 78.8974 56.1191 79.2214C55.7952 79.5453 55.3558 79.7273 54.8977 79.7273H54.82C54.5421 79.7284 54.2706 79.8107 54.0389 79.9642C53.8072 80.1176 53.6254 80.3355 53.5159 80.5909Z" stroke="white" stroke-width="2" stroke-linecap="round" stroke-linejoin="round"/>
</svg>
