<svg width="94" height="96" viewBox="0 0 94 96" fill="none" xmlns="http://www.w3.org/2000/svg">
<rect x="11.375" y="0.5" width="70" height="70" rx="20" fill="#E1E4EA"/>
<rect x="28.3781" y="36.8052" width="38.3288" height="20.1448" rx="5" fill="#E1E4EA" stroke="#141619" stroke-width="3" stroke-linecap="round" stroke-linejoin="round"/>
<path d="M36.483 50.1088L34.9625 52.4053" stroke="#141619" stroke-width="3" stroke-linecap="round" stroke-linejoin="round"/>
<path d="M44.3628 50.1088L42.8423 52.4053" stroke="#141619" stroke-width="3" stroke-linecap="round" stroke-linejoin="round"/>
<path d="M52.2426 50.1088L50.7222 52.4053" stroke="#141619" stroke-width="3" stroke-linecap="round" stroke-linejoin="round"/>
<path d="M60.1224 50.1088L58.602 52.4053" stroke="#141619" stroke-width="3" stroke-linecap="round" stroke-linejoin="round"/>
<path d="M36.483 41.8121L34.9625 44.1087" stroke="#141619" stroke-width="3" stroke-linecap="round" stroke-linejoin="round"/>
<path d="M44.3628 41.8121L42.8423 44.1087" stroke="#141619" stroke-width="3" stroke-linecap="round" stroke-linejoin="round"/>
<path d="M52.2426 41.8121L50.7222 44.1087" stroke="#141619" stroke-width="3" stroke-linecap="round" stroke-linejoin="round"/>
<path d="M60.1224 41.8121L58.602 44.1087" stroke="#141619" stroke-width="3" stroke-linecap="round" stroke-linejoin="round"/>
<path d="M61.4342 13.1665H32.6211L44.1464 26.7951V36.217L49.909 39.0983V26.7951L61.4342 13.1665Z" fill="#E1E4EA" stroke="#141619" stroke-width="3" stroke-linecap="round" stroke-linejoin="round"/>
<rect x="28.375" y="60" width="36" height="36" rx="18" fill="#004AAD"/>
<path d="M46.375 69.5L46.375 86.5" stroke="white" stroke-width="2" stroke-linecap="round"/>
<path d="M54.875 78L37.875 78" stroke="white" stroke-width="2" stroke-linecap="round"/>
</svg>
