<svg width="1440" height="830" viewBox="0 0 1440 830" fill="none" xmlns="http://www.w3.org/2000/svg">
<g clip-path="url(#clip0_357_1456)">
<g filter="url(#filter0_d_357_1456)">
<path d="M-0.5 0L-0.5 752.659C147.724 787.048 414.737 809.995 719.5 809.995C1024.26 809.995 1291.28 787.048 1439.5 752.659V0H-0.5Z" fill="white"/>
</g>
<g opacity="0.5">
<path d="M753.344 677.703L732.971 511.66L1394.09 485.175L1453.17 691.965" stroke="#E8F2FF" stroke-width="6"/>
<path d="M680 640.074L1147.61 636.337" stroke="#E8F2FF" stroke-width="6"/>
<line x1="754.931" y1="511.509" x2="779.007" y2="704.11" stroke="#E8F2FF"/>
<line x1="763.303" y1="514.232" x2="788.272" y2="704.108" stroke="#E8F2FF"/>
<line x1="771.171" y1="514.228" x2="797.415" y2="704.104" stroke="#E8F2FF"/>
<line x1="779.005" y1="514.224" x2="806.91" y2="704.1" stroke="#E8F2FF"/>
<line x1="787.63" y1="512.864" x2="815.06" y2="705.465" stroke="#E8F2FF"/>
<line x1="795.448" y1="512.131" x2="823.437" y2="704.203" stroke="#E8F2FF"/>
<line x1="803.874" y1="514.682" x2="832.7" y2="704.011" stroke="#E8F2FF"/>
<line x1="811.74" y1="514.519" x2="841.841" y2="703.822" stroke="#E8F2FF"/>
<line x1="819.573" y1="514.355" x2="851.335" y2="703.624" stroke="#E8F2FF"/>
<line x1="828.168" y1="512.82" x2="859.511" y2="704.824" stroke="#E8F2FF"/>
<line x1="836.543" y1="513.028" x2="869.763" y2="704.264" stroke="#E8F2FF"/>
<line x1="845.035" y1="515.348" x2="879.017" y2="703.819" stroke="#E8F2FF"/>
<line x1="852.893" y1="514.97" x2="888.15" y2="703.381" stroke="#E8F2FF"/>
<line x1="959.149" y1="515.337" x2="1003.02" y2="701.93" stroke="#E8F2FF"/>
<line x1="860.719" y1="514.593" x2="897.634" y2="702.924" stroke="#E8F2FF"/>
<line x1="966.949" y1="514.601" x2="1012.47" y2="701.038" stroke="#E8F2FF"/>
<line x1="869.269" y1="512.823" x2="905.841" y2="703.9" stroke="#E8F2FF"/>
<line x1="975.409" y1="512.44" x2="1020.72" y2="701.636" stroke="#E8F2FF"/>
<line x1="877.257" y1="513.736" x2="914.329" y2="704.263" stroke="#E8F2FF"/>
<line x1="983.431" y1="512.986" x2="1029.21" y2="701.61" stroke="#E8F2FF"/>
<line x1="885.794" y1="515.885" x2="923.572" y2="703.632" stroke="#E8F2FF"/>
<line x1="992.058" y1="514.74" x2="1038.42" y2="700.555" stroke="#E8F2FF"/>
<line x1="893.644" y1="515.349" x2="932.695" y2="703.01" stroke="#E8F2FF"/>
<line x1="999.873" y1="513.844" x2="1047.5" y2="699.513" stroke="#E8F2FF"/>
<line x1="901.459" y1="514.813" x2="942.167" y2="702.362" stroke="#E8F2FF"/>
<line x1="1007.66" y1="512.951" x2="1056.93" y2="698.432" stroke="#E8F2FF"/>
<line x1="909.973" y1="512.872" x2="950.392" y2="703.172" stroke="#E8F2FF"/>
<line x1="1016.07" y1="510.62" x2="1065.19" y2="698.863" stroke="#E8F2FF"/>
<line x1="918.093" y1="514.272" x2="957.942" y2="704.238" stroke="#E8F2FF"/>
<line x1="1024.25" y1="511.646" x2="1072.78" y2="699.582" stroke="#E8F2FF"/>
<line x1="926.66" y1="516.297" x2="967.174" y2="703.473" stroke="#E8F2FF"/>
<line x1="1032.9" y1="513.275" x2="1081.97" y2="698.393" stroke="#E8F2FF"/>
<line x1="934.502" y1="515.646" x2="976.288" y2="702.717" stroke="#E8F2FF"/>
<line x1="1040.7" y1="512.264" x2="1091.04" y2="697.219" stroke="#E8F2FF"/>
<line x1="942.308" y1="514.997" x2="985.749" y2="701.932" stroke="#E8F2FF"/>
<line x1="1048.47" y1="511.258" x2="1100.45" y2="696" stroke="#E8F2FF"/>
<line x1="950.793" y1="512.93" x2="993.985" y2="702.62" stroke="#E8F2FF"/>
<line x1="1056.85" y1="508.804" x2="1108.71" y2="696.31" stroke="#E8F2FF"/>
<line y1="-0.5" x2="216.445" y2="-0.5" transform="matrix(0.261431 0.965222 -0.948519 0.31672 1065.39 503.5)" stroke="#E8F2FF"/>
<line y1="-0.5" x2="213.485" y2="-0.5" transform="matrix(0.266996 0.963698 -0.946263 0.323397 1074.1 504.983)" stroke="#E8F2FF"/>
<line y1="-0.5" x2="213.599" y2="-0.5" transform="matrix(0.272742 0.962087 -0.943885 0.330275 1081.86 503.54)" stroke="#E8F2FF"/>
<line y1="-0.5" x2="213.022" y2="-0.5" transform="matrix(0.312564 0.949897 -0.926026 0.377459 1187.37 490.105)" stroke="#E8F2FF"/>
<line y1="-0.5" x2="213.758" y2="-0.5" transform="matrix(0.280193 0.959944 -0.940726 0.339169 1089.58 502.103)" stroke="#E8F2FF"/>
<line y1="-0.5" x2="213.166" y2="-0.5" transform="matrix(0.31996 0.947431 -0.922447 0.386124 1195.02 488.271)" stroke="#E8F2FF"/>
<line y1="-0.5" x2="216.741" y2="-0.5" transform="matrix(0.276327 0.961064 -0.942375 0.334557 1097.85 499.011)" stroke="#E8F2FF"/>
<line y1="-0.5" x2="216.149" y2="-0.5" transform="matrix(0.316122 0.948718 -0.924314 0.381632 1203.15 484.754)" stroke="#E8F2FF"/>
<line y1="-0.5" x2="216.209" y2="-0.5" transform="matrix(0.278992 0.960293 -0.941241 0.337736 1105.89 498.988)" stroke="#E8F2FF"/>
<line y1="-0.5" x2="215.612" y2="-0.5" transform="matrix(0.318767 0.947833 -0.923029 0.384729 1211.18 484.318)" stroke="#E8F2FF"/>
<line y1="-0.5" x2="213.247" y2="-0.5" transform="matrix(0.284541 0.958664 -0.938844 0.344344 1114.63 500.273)" stroke="#E8F2FF"/>
<line y1="-0.5" x2="212.647" y2="-0.5" transform="matrix(0.324274 0.945963 -0.920321 0.391165 1219.95 485.151)" stroke="#E8F2FF"/>
<line y1="-0.5" x2="212.647" y2="-0.5" transform="matrix(0.355448 0.934696 -0.906851 0.421452 1297.8 487.547)" stroke="#E8F2FF"/>
<line y1="-0.5" x2="212.744" y2="-0.5" transform="matrix(0.329958 0.943996 -0.917477 0.397788 1227.6 483.135)" stroke="#E8F2FF"/>
<line y1="-0.5" x2="213.355" y2="-0.5" transform="matrix(0.290269 0.956945 -0.93632 0.351149 1122.35 498.653)" stroke="#E8F2FF"/>
<line y1="-0.5" x2="197.384" y2="-0.5" transform="matrix(0.334917 0.942248 -0.937109 0.349036 1240.69 495.799)" stroke="#E8F2FF"/>
<line y1="-0.5" x2="212.744" y2="-0.5" transform="matrix(0.361064 0.932541 -0.903789 0.427977 1305.38 485.278)" stroke="#E8F2FF"/>
<line y1="-0.5" x2="200.101" y2="-0.5" transform="matrix(0.330833 0.943689 -0.938694 0.344752 1248.85 492.653)" stroke="#E8F2FF"/>
<line y1="-0.5" x2="213.508" y2="-0.5" transform="matrix(0.297697 0.95466 -0.932973 0.359945 1130.04 497.042)" stroke="#E8F2FF"/>
<line y1="-0.5" x2="199.651" y2="-0.5" transform="matrix(0.328517 0.944498 -0.939582 0.342323 1257.09 492.978)" stroke="#E8F2FF"/>
<line y1="-0.5" x2="212.881" y2="-0.5" transform="matrix(0.368342 0.929691 -0.89975 0.436405 1312.92 483.02)" stroke="#E8F2FF"/>
<line y1="-0.5" x2="196.969" y2="-0.5" transform="matrix(0.334386 0.942436 -0.937317 0.348478 1265.85 493.882)" stroke="#E8F2FF"/>
<line y1="-0.5" x2="216.491" y2="-0.5" transform="matrix(0.293843 0.955854 -0.93472 0.355385 1138.25 493.762)" stroke="#E8F2FF"/>
<line y1="-0.5" x2="197.125" y2="-0.5" transform="matrix(0.340438 0.940267 -0.934934 0.354822 1273.53 492.152)" stroke="#E8F2FF"/>
<line y1="-0.5" x2="215.863" y2="-0.5" transform="matrix(0.364566 0.931178 -0.901856 0.432037 1320.86 479.055)" stroke="#E8F2FF"/>
<line y1="-0.5" x2="197.341" y2="-0.5" transform="matrix(0.348277 0.937392 -0.931777 0.363032 1281.17 490.431)" stroke="#E8F2FF"/>
<line y1="-0.5" x2="216.028" y2="-0.5" transform="matrix(0.291659 0.956522 -0.9357 0.352797 1146.48 494.264)" stroke="#E8F2FF"/>
<line y1="-0.5" x2="200.058" y2="-0.5" transform="matrix(0.344211 0.938892 -0.933424 0.358775 1289.29 487.165)" stroke="#E8F2FF"/>
<line y1="-0.5" x2="215.406" y2="-0.5" transform="matrix(0.362426 0.932013 -0.90304 0.429557 1329.1 478.857)" stroke="#E8F2FF"/>
<line y1="-0.5" x2="213.065" y2="-0.5" transform="matrix(0.297195 0.954817 -0.933202 0.359352 1155.24 495.407)" stroke="#E8F2FF"/>
<line y1="-0.5" x2="212.441" y2="-0.5" transform="matrix(0.36785 0.929885 -0.900026 0.435837 1337.9 479.256)" stroke="#E8F2FF"/>
<line y1="-0.5" x2="213.17" y2="-0.5" transform="matrix(0.302911 0.953019 -0.930575 0.366101 1162.94 493.66)" stroke="#E8F2FF"/>
<line x1="1350.39" y1="487.36" x2="1425.28" y2="673.834" stroke="#E8F2FF"/>
<line y1="-0.5" x2="213.317" y2="-0.5" transform="matrix(0.310321 0.950632 -0.927096 0.374824 1170.61 491.923)" stroke="#E8F2FF"/>
<line x1="1358.62" y1="485.089" x2="1434.39" y2="670.944" stroke="#E8F2FF"/>
<line y1="-0.5" x2="216.3" y2="-0.5" transform="matrix(0.306476 0.951879 -0.928911 0.370302 1178.77 488.51)" stroke="#E8F2FF"/>
<line x1="1365.22" y1="480.939" x2="1442.59" y2="669.937" stroke="#E8F2FF"/>
<line x1="939.019" y1="672.908" x2="1354.06" y2="671.405" stroke="#E8F2FF" stroke-width="6"/>
<line x1="1127.12" y1="647.566" x2="1138.44" y2="723.296" stroke="#E8F2FF" stroke-width="6"/>
<line x1="955.176" y1="675.525" x2="959.422" y2="708.496" stroke="#E8F2FF" stroke-width="6"/>
<line x1="1047.89" y1="674.158" x2="1050.72" y2="708.633" stroke="#E8F2FF" stroke-width="6"/>
<line x1="1235.41" y1="674.098" x2="1238.94" y2="708.572" stroke="#E8F2FF" stroke-width="6"/>
<line x1="1350.01" y1="673.859" x2="1357.02" y2="711.873" stroke="#E8F2FF" stroke-width="6"/>
<line x1="747.096" y1="511.509" x2="771.171" y2="704.11" stroke="#E8F2FF"/>
<path d="M733.209 512.677L701.042 565.258L706.325 675.496" stroke="#E8F2FF" stroke-width="6"/>
</g>
<line y1="-0.5" x2="440.303" y2="-0.5" transform="matrix(-0.370708 0.92875 -0.995914 -0.0903028 197.447 327.655)" stroke="#E8F2FF"/>
<line y1="-0.5" x2="441.937" y2="-0.5" transform="matrix(-0.350401 0.9366 -0.996408 -0.0846827 260.228 322.667)" stroke="#E8F2FF"/>
<line y1="-0.5" x2="436.352" y2="-0.5" transform="matrix(-0.31652 0.948586 -0.99714 -0.0755832 333.469 322.667)" stroke="#E8F2FF"/>
<line y1="-0.5" x2="440.662" y2="-0.5" transform="matrix(-0.284933 0.958547 -0.997728 -0.0673731 430.777 314.189)" stroke="#E8F2FF"/>
<line y1="-0.5" x2="446.146" y2="-0.5" transform="matrix(-0.250938 0.968003 -0.998271 -0.0587873 529.13 307.707)" stroke="#E8F2FF"/>
<line y1="-0.5" x2="440.484" y2="-0.5" transform="matrix(-0.228038 0.973652 -0.998588 -0.0531295 614.928 307.707)" stroke="#E8F2FF"/>
<line y1="-0.5" x2="381.298" y2="-0.5" transform="matrix(-0.230509 0.97307 -0.998555 -0.0537354 637.948 397.97)" stroke="#E8F2FF"/>
<g opacity="0.5">
<line y1="-1.5" x2="582.734" y2="-1.5" transform="matrix(-0.204723 0.97882 -0.985356 -0.170507 183.578 149.659)" stroke="#E8F2FF" stroke-width="3"/>
<line y1="-1.5" x2="588.337" y2="-1.5" transform="matrix(-0.192377 0.981321 -0.987101 -0.160099 229.464 142.703)" stroke="#E8F2FF" stroke-width="3"/>
<path d="M286.753 138.655L185.247 720.513" stroke="#E8F2FF" stroke-width="3"/>
<line y1="-1.5" x2="596.277" y2="-1.5" transform="matrix(-0.153905 0.988086 -0.991799 -0.127811 354.117 130.878)" stroke="#E8F2FF" stroke-width="3"/>
<line x1="431.526" y1="93.4457" x2="346.077" y2="724.425" stroke="#E8F2FF" stroke-width="3"/>
<line x1="424.394" y1="94.1837" x2="338.926" y2="724.426" stroke="#E8F2FF" stroke-width="3"/>
<line x1="438.658" y1="92.5834" x2="353.801" y2="724.424" stroke="#E8F2FF" stroke-width="3"/>
<line y1="-1.5" x2="602.703" y2="-1.5" transform="matrix(-0.121811 0.992553 -0.994885 -0.101017 488.711 121.835)" stroke="#E8F2FF" stroke-width="3"/>
<line x1="493.741" y1="127.006" x2="421.041" y2="720.233" stroke="#E8F2FF" stroke-width="3"/>
<path d="M503.84 252.353L457.395 723.056" stroke="#E8F2FF" stroke-width="3"/>
<path d="M159.108 244.261L478.771 217.132L510.126 265.129" stroke="#E8F2FF" stroke-width="6"/>
<path d="M183.784 195.165L183.496 192.179L181.257 196.783L183.784 195.165ZM483.497 166.316L486.487 166.068L486.236 163.039L483.21 163.33L483.497 166.316ZM184.071 198.151L483.785 169.303L483.21 163.33L183.496 192.179L184.071 198.151ZM480.507 166.564L486.105 234.025L492.084 233.529L486.487 166.068L480.507 166.564ZM181.257 196.783L209.088 240.231L214.14 236.995L186.31 193.547L181.257 196.783Z" fill="#E8F2FF"/>
<path d="M183.4 200.557L183.113 197.571L180.874 202.176L183.4 200.557ZM483.114 171.709L486.104 171.461L485.852 168.432L482.827 168.723L483.114 171.709ZM183.688 203.544L483.401 174.695L482.827 168.723L183.113 197.571L183.688 203.544ZM480.124 171.957L485.722 239.417L491.701 238.921L486.104 171.461L480.124 171.957ZM180.874 202.176L208.705 245.624L213.757 242.387L185.927 198.939L180.874 202.176Z" fill="#E8F2FF"/>
<path d="M156.89 287.062L473.056 262.271L503.253 300.58" stroke="#E8F2FF" stroke-width="6"/>
<path d="M147.242 333.158L467.89 307.447L498.484 342.865M136.204 382.076L461.93 358.406L491.332 393.101" stroke="#E8F2FF" stroke-width="6"/>
<path d="M126.005 430.714L455.616 409.571L487.496 446.545M115.68 484.711L449.656 464.051L483.497 498.533" stroke="#E8F2FF" stroke-width="6"/>
<path d="M103.422 532.838L439.482 515.217L481.275 555.854M91.8069 587.421L433.522 569.697L475.054 612.286" stroke="#E8F2FF" stroke-width="6"/>
<path d="M82.4607 640.664L428.336 624.014L473.277 664.719M70.8715 695.829L423.519 682.29L457.721 710.333" stroke="#E8F2FF" stroke-width="6"/>
<line y1="-1.5" x2="306.433" y2="-1.5" transform="matrix(0.996338 -0.0855023 0.103172 0.994664 183.784 159.125)" stroke="#E8F2FF" stroke-width="3"/>
<line y1="-1.5" x2="306.433" y2="-1.5" transform="matrix(0.996338 -0.0855023 0.103172 0.994664 183.784 172.226)" stroke="#E8F2FF" stroke-width="3"/>
<path d="M162.017 474.75L171.687 429.27L357.142 417.819L347.472 463.298L162.017 474.75Z" fill="#FBFCFD" stroke="#E8F2FF" stroke-width="3"/>
<path d="M119.991 683.026L129.666 637.525L315.477 630.872L305.802 676.372L119.991 683.026Z" fill="#FBFCFD" stroke="#E8F2FF" stroke-width="3"/>
<line y1="-1.5" x2="94.7349" y2="-1.5" transform="matrix(0.717712 0.69634 -0.760911 0.648856 454.987 595.526)" stroke="#E8F2FF" stroke-width="3"/>
<line y1="-1.5" x2="94.7349" y2="-1.5" transform="matrix(0.717712 0.69634 -0.760911 0.648856 441.297 568.315)" stroke="#E8F2FF" stroke-width="3"/>
<line y1="-1.5" x2="94.7349" y2="-1.5" transform="matrix(0.717712 0.69634 -0.760911 0.648856 454.987 623.964)" stroke="#E8F2FF" stroke-width="3"/>
<line y1="-1.5" x2="94.7349" y2="-1.5" transform="matrix(0.717712 0.69634 -0.760911 0.648856 454.987 656.948)" stroke="#E8F2FF" stroke-width="3"/>
<line y1="-1.5" x2="379.912" y2="-1.5" transform="matrix(0.999672 -0.0256249 0.0309678 0.99952 45.6263 720.051)" stroke="#E8F2FF" stroke-width="3"/>
<line y1="-1.5" x2="379.912" y2="-1.5" transform="matrix(0.999672 -0.0256249 0.0309678 0.99952 31.9148 745.616)" stroke="#E8F2FF" stroke-width="3"/>
<line y1="-1.5" x2="58.4741" y2="-1.5" transform="matrix(-0.12537 0.99211 -0.994579 -0.103982 455.669 113.696)" stroke="#E8F2FF" stroke-width="3"/>
<line x1="391.126" y1="117.977" x2="381.659" y2="184.626" stroke="#E8F2FF" stroke-width="3"/>
<line y1="-1.5" x2="81.4394" y2="-1.5" transform="matrix(0.994994 -0.0999359 0.120514 0.992712 385.088 121.835)" stroke="#E8F2FF" stroke-width="3"/>
</g>
</g>
<defs>
<filter id="filter0_d_357_1456" x="-13.5" y="-9" width="1466" height="835.995" filterUnits="userSpaceOnUse" color-interpolation-filters="sRGB">
<feFlood flood-opacity="0" result="BackgroundImageFix"/>
<feColorMatrix in="SourceAlpha" type="matrix" values="0 0 0 0 0 0 0 0 0 0 0 0 0 0 0 0 0 0 127 0" result="hardAlpha"/>
<feOffset dy="4"/>
<feGaussianBlur stdDeviation="6.5"/>
<feComposite in2="hardAlpha" operator="out"/>
<feColorMatrix type="matrix" values="0 0 0 0 0 0 0 0 0 0 0 0 0 0 0 0 0 0 0.08 0"/>
<feBlend mode="normal" in2="BackgroundImageFix" result="effect1_dropShadow_357_1456"/>
<feBlend mode="normal" in="SourceGraphic" in2="effect1_dropShadow_357_1456" result="shape"/>
</filter>
<clipPath id="clip0_357_1456">
<rect width="1441" height="830" fill="white" transform="translate(-1)"/>
</clipPath>
</defs>
</svg>
