<svg width="37" height="36" viewBox="0 0 37 36" fill="none" xmlns="http://www.w3.org/2000/svg">
<rect x="0.5" width="36" height="36" rx="18" fill="#E1E4EA"/>
<path d="M25.9847 21.7304V23.9885C25.9855 24.1981 25.9426 24.4056 25.8586 24.5977C25.7746 24.7898 25.6514 24.9622 25.497 25.1039C25.3425 25.2456 25.1601 25.3535 24.9615 25.4207C24.763 25.4878 24.5525 25.5128 24.3438 25.4939C22.0276 25.2422 19.8027 24.4508 17.8479 23.1831C16.0293 22.0274 14.4874 20.4855 13.3317 18.6669C12.0597 16.7032 11.268 14.4676 11.0209 12.141C11.0021 11.9328 11.0269 11.723 11.0936 11.525C11.1603 11.3269 11.2675 11.1449 11.4084 10.9905C11.5493 10.8362 11.7208 10.7129 11.912 10.6284C12.1032 10.544 12.3098 10.5003 12.5188 10.5001H14.7769C15.1422 10.4965 15.4963 10.6258 15.7733 10.864C16.0503 11.1022 16.2312 11.433 16.2823 11.7947C16.3776 12.5174 16.5544 13.2269 16.8092 13.9098C16.9105 14.1792 16.9324 14.472 16.8724 14.7535C16.8123 15.035 16.6729 15.2934 16.4705 15.498L15.5146 16.4539C16.5861 18.3384 18.1464 19.8986 20.0308 20.9702L20.9867 20.0142C21.1914 19.8118 21.4497 19.6724 21.7312 19.6123C22.0127 19.5523 22.3055 19.5742 22.5749 19.6755C23.2578 19.9303 23.9674 20.1071 24.69 20.2024C25.0556 20.254 25.3896 20.4381 25.6283 20.7199C25.867 21.0016 25.9938 21.3612 25.9847 21.7304Z" stroke="#141619" stroke-width="2" stroke-linecap="round" stroke-linejoin="round"/>
</svg>
