<svg width="24" height="24" viewBox="0 0 24 24" fill="none" xmlns="http://www.w3.org/2000/svg">
<path d="M20.5 12C20.5 16.6944 16.6944 20.5 12 20.5M20.5 12C20.5 7.30558 16.6944 3.5 12 3.5M20.5 12H3.5M12 20.5C7.30558 20.5 3.5 16.6944 3.5 12M12 20.5C14.1261 18.1724 15.3343 15.1518 15.4 12C15.3343 8.84823 14.1261 5.8276 12 3.5M12 20.5C9.87391 18.1724 8.66566 15.1518 8.6 12C8.66566 8.84823 9.87391 5.8276 12 3.5M3.5 12C3.5 7.30558 7.30558 3.5 12 3.5" stroke="white" stroke-width="2" stroke-linecap="round" stroke-linejoin="round"/>
</svg>
