<svg width="36" height="36" viewBox="0 0 36 36" fill="none" xmlns="http://www.w3.org/2000/svg">
<rect width="36" height="36" rx="18" fill="#E1E4EA"/>
<path d="M25.4847 21.7304V23.9885C25.4856 24.1981 25.4426 24.4056 25.3586 24.5977C25.2747 24.7898 25.1515 24.9622 24.997 25.1039C24.8426 25.2456 24.6602 25.3535 24.4616 25.4207C24.263 25.4878 24.0526 25.5128 23.8438 25.4939C21.5276 25.2422 19.3028 24.4508 17.348 23.1831C15.5294 22.0274 13.9874 20.4855 12.8318 18.6669C11.5597 16.7032 10.7681 14.4676 10.521 12.141C10.5022 11.9328 10.5269 11.723 10.5936 11.525C10.6603 11.3269 10.7676 11.1449 10.9085 10.9905C11.0494 10.8362 11.2209 10.7129 11.412 10.6284C11.6032 10.544 11.8099 10.5003 12.0189 10.5001H14.277C14.6423 10.4965 14.9964 10.6258 15.2734 10.864C15.5504 11.1022 15.7313 11.433 15.7824 11.7947C15.8777 12.5174 16.0545 13.2269 16.3093 13.9098C16.4106 14.1792 16.4325 14.472 16.3724 14.7535C16.3124 15.035 16.1729 15.2934 15.9706 15.498L15.0146 16.4539C16.0861 18.3384 17.6464 19.8986 19.5308 20.9702L20.4868 20.0142C20.6914 19.8118 20.9498 19.6724 21.2313 19.6123C21.5128 19.5523 21.8056 19.5742 22.075 19.6755C22.7579 19.9303 23.4674 20.1071 24.1901 20.2024C24.5557 20.254 24.8896 20.4381 25.1283 20.7199C25.367 21.0016 25.4939 21.3612 25.4847 21.7304Z" stroke="#141619" stroke-width="2" stroke-linecap="round" stroke-linejoin="round"/>
</svg>
