<svg width="38" height="38" viewBox="0 0 38 38" fill="none" xmlns="http://www.w3.org/2000/svg">
<path d="M21.2521 16.7479L7.849 30.151M9.29547 20.4238L2.73041 18.873C2.00812 18.7024 1.75409 17.8057 2.27732 17.2806L7.49828 12.0596C7.849 11.7089 8.32484 11.508 8.82343 11.5042L14.7098 11.453M22.1242 4.71731C26.5053 7.70505 30.2949 11.4947 33.2827 15.8758M17.5743 28.7045L19.1251 35.2696C19.2957 35.9919 20.1924 36.2459 20.7175 35.7227L25.9385 30.5017C26.2892 30.151 26.4901 29.6752 26.4939 29.1766L26.5451 23.2902M34.4069 12.7952L35.9387 5.42444C36.3557 3.41871 34.5813 1.64427 32.5756 2.06134L25.2048 3.59312C23.0341 4.04431 21.0436 5.11922 19.4777 6.68702L13.4302 12.7326C11.123 15.0398 9.62154 18.0313 9.1476 21.2598L9.12675 21.3982C8.82722 23.4589 9.51728 25.5386 10.9884 27.0116C12.4595 28.4827 14.5411 29.1728 16.6018 28.8714L16.7402 28.8505C19.9687 28.3785 22.9602 26.8751 25.2674 24.5679L31.313 18.5223C32.8808 16.9564 33.9557 14.9659 34.4069 12.7952Z" stroke="white" stroke-width="3" stroke-linecap="round" stroke-linejoin="round"/>
</svg>
