<svg width="36" height="36" viewBox="0 0 36 36" fill="none" xmlns="http://www.w3.org/2000/svg">
<rect width="36" height="36" rx="18" fill="#E1E4EA"/>
<path d="M25.4845 21.7304V23.9885C25.4853 24.1981 25.4424 24.4056 25.3584 24.5977C25.2744 24.7898 25.1512 24.9622 24.9968 25.1039C24.8423 25.2456 24.6599 25.3535 24.4614 25.4207C24.2628 25.4878 24.0524 25.5128 23.8436 25.4939C21.5274 25.2422 19.3025 24.4508 17.3478 23.1831C15.5291 22.0274 13.9872 20.4855 12.8316 18.6669C11.5595 16.7032 10.7678 14.4676 10.5208 12.141C10.5019 11.9328 10.5267 11.723 10.5934 11.525C10.6601 11.3269 10.7673 11.1449 10.9082 10.9905C11.0491 10.8362 11.2206 10.7129 11.4118 10.6284C11.603 10.544 11.8096 10.5003 12.0186 10.5001H14.2767C14.642 10.4965 14.9962 10.6258 15.2731 10.864C15.5501 11.1022 15.731 11.433 15.7821 11.7947C15.8775 12.5174 16.0542 13.2269 16.309 13.9098C16.4103 14.1792 16.4322 14.472 16.3722 14.7535C16.3122 15.035 16.1727 15.2934 15.9703 15.498L15.0144 16.4539C16.0859 18.3384 17.6462 19.8986 19.5306 20.9702L20.4865 20.0142C20.6912 19.8118 20.9496 19.6724 21.231 19.6123C21.5125 19.5523 21.8053 19.5742 22.0747 19.6755C22.7576 19.9303 23.4672 20.1071 24.1898 20.2024C24.5555 20.254 24.8894 20.4381 25.1281 20.7199C25.3668 21.0016 25.4936 21.3612 25.4845 21.7304Z" stroke="#141619" stroke-width="2" stroke-linecap="round" stroke-linejoin="round"/>
</svg>
