<svg width="25" height="24" viewBox="0 0 25 24" fill="none" xmlns="http://www.w3.org/2000/svg">
<path d="M21.2764 12C21.2764 16.6944 17.4708 20.5 12.7764 20.5M21.2764 12C21.2764 7.30558 17.4708 3.5 12.7764 3.5M21.2764 12H4.27637M12.7764 20.5C8.08195 20.5 4.27637 16.6944 4.27637 12M12.7764 20.5C14.9025 18.1724 16.1107 15.1518 16.1764 12C16.1107 8.84823 14.9025 5.8276 12.7764 3.5M12.7764 20.5C10.6503 18.1724 9.44203 15.1518 9.37637 12C9.44203 8.84823 10.6503 5.8276 12.7764 3.5M4.27637 12C4.27637 7.30558 8.08195 3.5 12.7764 3.5" stroke="#141619" stroke-width="2" stroke-linecap="round" stroke-linejoin="round"/>
</svg>
