<svg width="16" height="20" viewBox="0 0 16 20" fill="none" xmlns="http://www.w3.org/2000/svg">
<path d="M9 3.99335C9.00172 3.44107 8.5554 2.99196 8.00312 2.99024C7.45084 2.98852 7.00173 3.43483 7 3.98712L9 3.99335ZM7.2532 16.7147C7.64251 17.1064 8.27567 17.1084 8.66741 16.7191L15.0512 10.375C15.4429 9.98572 15.4449 9.35256 15.0556 8.96082C14.6663 8.56908 14.0331 8.5671 13.6414 8.95641L7.96692 14.5956L2.32774 8.92112C1.93843 8.52938 1.30527 8.5274 0.913532 8.91671C0.521792 9.30601 0.519817 9.93918 0.909122 10.3309L7.2532 16.7147ZM7 3.98712L6.96252 16.0067L8.96251 16.0129L9 3.99335L7 3.98712Z" fill="#141619"/>
</svg>
