<svg width="263" height="52" viewBox="0 0 263 52" fill="none" xmlns="http://www.w3.org/2000/svg">
<path d="M68.711 16.8507C71.9252 16.8507 73.8901 15.2279 73.8901 12.6363C73.8901 9.58003 71.1078 8.9569 68.866 8.45706C67.3553 8.11137 66.0682 7.81851 66.0682 6.86729C66.0682 6.03938 66.9388 5.69368 67.8249 5.69368C69.1274 5.69368 70.0312 6.36746 70.3436 7.49043H73.5578C73.1414 4.5531 70.6736 3.10205 67.8936 3.10205C65.1822 3.10205 62.9758 4.39677 62.9758 7.12712C62.9758 10.0292 65.6341 10.6149 67.8581 11.117C69.4221 11.4627 70.76 11.7555 70.76 12.7926C70.76 13.8297 69.7521 14.2613 68.6933 14.2613C67.4948 14.2613 66.2942 13.8121 65.8423 12.0836H62.6281C62.8717 15.7806 66.2078 16.8507 68.711 16.8507Z" fill="#141619"/>
<path d="M76.8594 16.7644C77.7302 16.7644 78.4592 16.0224 78.4592 15.124C78.4592 14.2608 77.7302 13.5166 76.8594 13.5166C75.9576 13.5166 75.1909 14.2432 75.1909 15.124C75.1909 16.04 75.9576 16.7644 76.8594 16.7644Z" fill="#141619"/>
<path d="M87.5812 16.5577L89.0766 6.60738L90.5697 16.5577H95.6096L98.773 3.37939H95.5054L93.1417 14.3647L91.2144 3.37939H86.9388L85.0093 14.347L82.6455 3.37939H79.3779L82.5414 16.5577H87.5812Z" fill="#141619"/>
<path d="M101.359 16.7644C102.23 16.7644 102.959 16.0224 102.959 15.124C102.959 14.2608 102.23 13.5166 101.359 13.5166C100.457 13.5166 99.6906 14.2432 99.6906 15.124C99.6906 16.04 100.457 16.7644 101.359 16.7644Z" fill="#141619"/>
<path d="M66.2446 33.4474V20.269H63.1333V33.4474H66.2446Z" fill="#141619"/>
<path d="M71.6643 33.4474V25.3973L76.7549 33.4474H79.9181V20.269H76.808V28.2663L71.7153 20.269H68.5542V33.4474H71.6643Z" fill="#141619"/>
<path d="M86.2257 33.4474C90.7425 33.4474 93.228 31.098 93.228 26.8307C93.228 22.6009 90.7425 20.269 86.2257 20.269H82.2118V33.4474H86.2257ZM85.3219 23.0324H86.1903C88.6071 23.0324 90.1178 24.3271 90.1178 26.8307C90.1178 29.5082 88.7444 30.684 86.1903 30.684H85.3219V23.0324Z" fill="#141619"/>
<path d="M100.542 33.7402C104.627 33.7402 106.173 31.5472 106.173 28.524V20.269H103.045V28.524C103.045 29.8715 102.558 30.9769 100.542 30.9769C98.5108 30.9769 98.0235 29.8715 98.0235 28.524V20.269H94.8956V28.524C94.8956 31.5472 96.4418 33.7402 100.542 33.7402Z" fill="#141619"/>
<path d="M113.923 33.7408C117.137 33.7408 119.102 32.118 119.102 29.5264C119.102 26.4702 116.32 25.847 114.078 25.3472C112.567 25.0015 111.28 24.7087 111.28 23.7574C111.28 22.9295 112.151 22.5838 113.037 22.5838C114.339 22.5838 115.243 23.2576 115.555 24.3806H118.77C118.353 21.4432 115.885 19.9922 113.105 19.9922C110.394 19.9922 108.188 21.2869 108.188 24.0173C108.188 26.9194 110.846 27.5051 113.07 28.0071C114.634 28.3528 115.972 28.6456 115.972 29.6827C115.972 30.7198 114.964 31.1514 113.905 31.1514C112.707 31.1514 111.506 30.7022 111.054 28.9737H107.84C108.084 32.6707 111.42 33.7408 113.923 33.7408Z" fill="#141619"/>
<path d="M126.868 33.4474V23.0324H130.603V20.269H120.021V23.0324H123.756V33.4474H126.868Z" fill="#141619"/>
<path d="M140.542 27.7995C141.707 27.1434 142.436 25.9169 142.436 24.2413C142.436 21.3744 140.682 20.269 138.249 20.269H131.994V33.4474H135.104V28.3698H137.623L139.552 33.4474H142.837L140.542 27.7995ZM137.815 23.0324C138.823 23.0324 139.362 23.4816 139.362 24.3448C139.362 25.2431 138.823 25.6923 137.815 25.6923H135.104V23.0324H137.815Z" fill="#141619"/>
<path d="M147.615 33.4474V20.269H144.504V33.4474H147.615Z" fill="#141619"/>
<path d="M152.218 33.4474L152.932 31.0804H157.345L158.058 33.4474H161.359L156.824 20.269H153.452L148.917 33.4474H152.218ZM155.138 23.7062L156.529 28.4029H153.749L155.138 23.7062Z" fill="#141619"/>
<path d="M171.159 33.4474V30.684H165.754V20.269H162.644V33.4474H171.159Z" fill="#141619"/>
<path d="M68.711 50.6305C71.9252 50.6305 73.8901 49.0077 73.8901 46.416C73.8901 43.3598 71.1078 42.7367 68.866 42.2368C67.3553 41.8912 66.0682 41.5983 66.0682 40.6471C66.0682 39.8192 66.9388 39.4735 67.8249 39.4735C69.1274 39.4735 70.0312 40.1472 70.3436 41.2702H73.5578C73.1414 38.3329 70.6736 36.8818 67.8936 36.8818C65.1822 36.8818 62.9758 38.1766 62.9758 40.9069C62.9758 43.809 65.6341 44.3947 67.8581 44.8967C69.4221 45.2424 70.76 45.5353 70.76 46.5724C70.76 47.6095 69.7521 48.041 68.6933 48.041C67.4948 48.041 66.2942 47.5919 65.8423 45.8634H62.6281C62.8717 49.5604 66.2078 50.6305 68.711 50.6305Z" fill="#141619"/>
<path d="M81.8472 50.6305C86.3487 50.6305 88.451 47.4179 88.451 43.7385C88.451 40.0592 86.3487 36.8818 81.8472 36.8818C77.3102 36.8818 75.2256 40.0592 75.2256 43.7385C75.2256 47.4179 77.3102 50.6305 81.8472 50.6305ZM81.8472 47.8671C79.7603 47.8671 78.5109 46.2443 78.5109 43.7385C78.5109 41.2526 79.7603 39.6452 81.8472 39.6452C83.9318 39.6452 85.1657 41.2526 85.1657 43.7385C85.1657 46.2443 83.9318 47.8671 81.8472 47.8671Z" fill="#141619"/>
<path d="M98.7896 50.3375V47.5742H93.3845V37.1592H90.2744V50.3375H98.7896Z" fill="#141619"/>
<path d="M105.685 50.6304C109.77 50.6304 111.316 48.4373 111.316 45.4141V37.1592H108.189V45.4141C108.189 46.7617 107.701 47.867 105.685 47.867C103.654 47.867 103.167 46.7617 103.167 45.4141V37.1592H100.039V45.4141C100.039 48.4373 101.585 50.6304 105.685 50.6304Z" fill="#141619"/>
<path d="M119.432 50.3375V39.9226H123.167V37.1592H112.585V39.9226H116.319V50.3375H119.432Z" fill="#141619"/>
<path d="M127.668 50.3375V37.1592H124.557V50.3375H127.668Z" fill="#141619"/>
<path d="M136.112 50.6305C140.614 50.6305 142.716 47.4179 142.716 43.7385C142.716 40.0592 140.614 36.8818 136.112 36.8818C131.575 36.8818 129.491 40.0592 129.491 43.7385C129.491 47.4179 131.575 50.6305 136.112 50.6305ZM136.112 47.8671C134.026 47.8671 132.776 46.2443 132.776 43.7385C132.776 41.2526 134.026 39.6452 136.112 39.6452C138.197 39.6452 139.431 41.2526 139.431 43.7385C139.431 46.2443 138.197 47.8671 136.112 47.8671Z" fill="#141619"/>
<path d="M147.649 50.3375V42.2874L152.74 50.3375H155.903V37.1592H152.793V45.1565L147.7 37.1592H144.539V50.3375H147.649Z" fill="#141619"/>
<path d="M163.774 50.6305C166.989 50.6305 168.953 49.0077 168.953 46.416C168.953 43.3598 166.171 42.7367 163.929 42.2368C162.419 41.8912 161.132 41.5983 161.132 40.6471C161.132 39.8192 162.002 39.4735 162.888 39.4735C164.191 39.4735 165.095 40.1472 165.407 41.2702H168.621C168.205 38.3329 165.737 36.8818 162.957 36.8818C160.246 36.8818 158.039 38.1766 158.039 40.9069C158.039 43.809 160.697 44.3947 162.921 44.8967C164.485 45.2424 165.823 45.5353 165.823 46.5724C165.823 47.6095 164.815 48.041 163.757 48.041C162.558 48.041 161.358 47.5919 160.906 45.8634H157.691C157.935 49.5604 161.271 50.6305 163.774 50.6305Z" fill="#141619"/>
<mask id="mask0_405_1476" style="mask-type:luminance" maskUnits="userSpaceOnUse" x="0" y="0" width="53" height="52">
<path d="M0.670898 0H52.9901V52H0.670898V0Z" fill="white"/>
</mask>
<g mask="url(#mask0_405_1476)">
<path d="M52.9834 0V25.9978L26.8216 0H52.9834ZM0.670898 0L26.8216 25.9978V0H0.670898ZM52.9834 51.9934V25.9978H26.8216L52.9834 51.9934ZM26.8216 51.9934V25.9978H0.670898L26.8216 51.9934Z" fill="#004AAD"/>
</g>
</svg>
