<svg width="201" height="52" viewBox="0 0 201 52" fill="none" xmlns="http://www.w3.org/2000/svg">
<path d="M68.5992 16.8508C71.8134 16.8508 73.7783 15.228 73.7783 12.6364C73.7783 9.58015 70.996 8.95702 68.7542 8.45719C67.2435 8.11149 65.9564 7.81864 65.9564 6.86742C65.9564 6.0395 66.827 5.69381 67.7131 5.69381C69.0156 5.69381 69.9194 6.36759 70.2318 7.49055H73.446C73.0295 4.55322 70.5618 3.10217 67.7818 3.10217C65.0704 3.10217 62.864 4.39689 62.864 7.12724C62.864 10.0293 65.5223 10.615 67.7463 11.1171C69.3102 11.4628 70.6482 11.7556 70.6482 12.7927C70.6482 13.8298 69.6403 14.2614 68.5814 14.2614C67.383 14.2614 66.1824 13.8122 65.7305 12.0837H62.5162C62.7599 15.7807 66.096 16.8508 68.5992 16.8508Z" fill="white"/>
<path d="M76.7476 16.7645C77.6184 16.7645 78.3473 16.0225 78.3473 15.1241C78.3473 14.261 77.6184 13.5167 76.7476 13.5167C75.8458 13.5167 75.0791 14.2433 75.0791 15.1241C75.0791 16.0401 75.8458 16.7645 76.7476 16.7645Z" fill="white"/>
<path d="M87.4694 16.5575L88.9648 6.60713L90.4579 16.5575H95.4977L98.6612 3.37915H95.3936L93.0299 14.3644L91.1025 3.37915H86.827L84.8974 14.3468L82.5337 3.37915H79.2661L82.4296 16.5575H87.4694Z" fill="white"/>
<path d="M101.247 16.7645C102.118 16.7645 102.847 16.0225 102.847 15.1241C102.847 14.261 102.118 13.5167 101.247 13.5167C100.345 13.5167 99.5787 14.2433 99.5787 15.1241C99.5787 16.0401 100.345 16.7645 101.247 16.7645Z" fill="white"/>
<path d="M66.1328 33.4475V20.2692H63.0215V33.4475H66.1328Z" fill="white"/>
<path d="M71.5525 33.4475V25.3974L76.643 33.4475H79.8063V20.2692H76.6962V28.2665L71.6035 20.2692H68.4424V33.4475H71.5525Z" fill="white"/>
<path d="M86.1139 33.4475C90.6307 33.4475 93.1161 31.0981 93.1161 26.8308C93.1161 22.601 90.6307 20.2692 86.1139 20.2692H82.1V33.4475H86.1139ZM85.2101 23.0325H86.0785C88.4952 23.0325 90.006 24.3273 90.006 26.8308C90.006 29.5083 88.6326 30.6841 86.0785 30.6841H85.2101V23.0325Z" fill="white"/>
<path d="M100.43 33.7404C104.515 33.7404 106.061 31.5473 106.061 28.5241V20.2692H102.934V28.5241C102.934 29.8716 102.446 30.977 100.43 30.977C98.399 30.977 97.9117 29.8716 97.9117 28.5241V20.2692H94.7838V28.5241C94.7838 31.5473 96.33 33.7404 100.43 33.7404Z" fill="white"/>
<path d="M113.811 33.7408C117.025 33.7408 118.99 32.118 118.99 29.5264C118.99 26.4702 116.208 25.847 113.966 25.3472C112.455 25.0015 111.168 24.7087 111.168 23.7574C111.168 22.9295 112.039 22.5838 112.925 22.5838C114.227 22.5838 115.131 23.2576 115.444 24.3806H118.658C118.241 21.4432 115.774 19.9922 112.994 19.9922C110.282 19.9922 108.076 21.2869 108.076 24.0173C108.076 26.9194 110.734 27.5051 112.958 28.0071C114.522 28.3528 115.86 28.6456 115.86 29.6827C115.86 30.7198 114.852 31.1514 113.793 31.1514C112.595 31.1514 111.394 30.7022 110.942 28.9737H107.728C107.972 32.6707 111.308 33.7408 113.811 33.7408Z" fill="white"/>
<path d="M126.756 33.4475V23.0325H130.491V20.2692H119.909V23.0325H123.644V33.4475H126.756Z" fill="white"/>
<path d="M140.43 27.7997C141.596 27.1435 142.324 25.917 142.324 24.2414C142.324 21.3745 140.57 20.2692 138.138 20.2692H131.882V33.4475H134.992V28.3699H137.511L139.44 33.4475H142.725L140.43 27.7997ZM137.703 23.0325C138.711 23.0325 139.25 23.4817 139.25 24.3449C139.25 25.2433 138.711 25.6924 137.703 25.6924H134.992V23.0325H137.703Z" fill="white"/>
<path d="M147.503 33.4475V20.2692H144.392V33.4475H147.503Z" fill="white"/>
<path d="M152.106 33.4475L152.82 31.0805H157.233L157.946 33.4475H161.247L156.712 20.2692H153.34L148.806 33.4475H152.106ZM155.026 23.7063L156.417 28.403H153.637L155.026 23.7063Z" fill="white"/>
<path d="M171.048 33.4475V30.6841H165.643V20.2692H162.532V33.4475H171.048Z" fill="white"/>
<path d="M68.5992 50.6305C71.8134 50.6305 73.7783 49.0077 73.7783 46.416C73.7783 43.3598 70.996 42.7367 68.7542 42.2368C67.2435 41.8912 65.9564 41.5983 65.9564 40.6471C65.9564 39.8192 66.827 39.4735 67.7131 39.4735C69.0156 39.4735 69.9194 40.1472 70.2318 41.2702H73.446C73.0295 38.3329 70.5618 36.8818 67.7818 36.8818C65.0704 36.8818 62.864 38.1766 62.864 40.9069C62.864 43.809 65.5223 44.3947 67.7463 44.8967C69.3102 45.2424 70.6482 45.5353 70.6482 46.5724C70.6482 47.6095 69.6403 48.041 68.5814 48.041C67.383 48.041 66.1824 47.5919 65.7305 45.8634H62.5162C62.7599 49.5604 66.096 50.6305 68.5992 50.6305Z" fill="white"/>
<path d="M81.7354 50.6305C86.2369 50.6305 88.3392 47.4179 88.3392 43.7385C88.3392 40.0592 86.2369 36.8818 81.7354 36.8818C77.1984 36.8818 75.1138 40.0592 75.1138 43.7385C75.1138 47.4179 77.1984 50.6305 81.7354 50.6305ZM81.7354 47.8671C79.6485 47.8671 78.3991 46.2443 78.3991 43.7385C78.3991 41.2526 79.6485 39.6452 81.7354 39.6452C83.82 39.6452 85.0539 41.2526 85.0539 43.7385C85.0539 46.2443 83.82 47.8671 81.7354 47.8671Z" fill="white"/>
<path d="M98.6778 50.3375V47.5742H93.2727V37.1592H90.1626V50.3375H98.6778Z" fill="white"/>
<path d="M105.574 50.6304C109.658 50.6304 111.205 48.4373 111.205 45.4141V37.1592H108.077V45.4141C108.077 46.7617 107.589 47.867 105.574 47.867C103.542 47.867 103.055 46.7617 103.055 45.4141V37.1592H99.927V45.4141C99.927 48.4373 101.473 50.6304 105.574 50.6304Z" fill="white"/>
<path d="M119.32 50.3375V39.9226H123.055V37.1592H112.473V39.9226H116.208V50.3375H119.32Z" fill="white"/>
<path d="M127.556 50.3375V37.1592H124.445V50.3375H127.556Z" fill="white"/>
<path d="M136.001 50.6305C140.502 50.6305 142.604 47.4179 142.604 43.7385C142.604 40.0592 140.502 36.8818 136.001 36.8818C131.464 36.8818 129.379 40.0592 129.379 43.7385C129.379 47.4179 131.464 50.6305 136.001 50.6305ZM136.001 47.8671C133.914 47.8671 132.664 46.2443 132.664 43.7385C132.664 41.2526 133.914 39.6452 136.001 39.6452C138.085 39.6452 139.319 41.2526 139.319 43.7385C139.319 46.2443 138.085 47.8671 136.001 47.8671Z" fill="white"/>
<path d="M147.538 50.3375V42.2874L152.628 50.3375H155.791V37.1592H152.681V45.1565L147.588 37.1592H144.427V50.3375H147.538Z" fill="white"/>
<path d="M163.663 50.6305C166.877 50.6305 168.842 49.0077 168.842 46.416C168.842 43.3598 166.059 42.7367 163.818 42.2368C162.307 41.8912 161.02 41.5983 161.02 40.6471C161.02 39.8192 161.89 39.4735 162.776 39.4735C164.079 39.4735 164.983 40.1472 165.295 41.2702H168.509C168.093 38.3329 165.625 36.8818 162.845 36.8818C160.134 36.8818 157.927 38.1766 157.927 40.9069C157.927 43.809 160.586 44.3947 162.81 44.8967C164.374 45.2424 165.712 45.5353 165.712 46.5724C165.712 47.6095 164.704 48.041 163.645 48.041C162.446 48.041 161.246 47.5919 160.794 45.8634H157.58C157.823 49.5604 161.159 50.6305 163.663 50.6305Z" fill="white"/>
<mask id="mask0_357_1795" style="mask-type:luminance" maskUnits="userSpaceOnUse" x="0" y="0" width="53" height="52">
<path d="M0.559082 0H52.8782V52H0.559082V0Z" fill="white"/>
</mask>
<g mask="url(#mask0_357_1795)">
<path d="M52.8716 0V25.9978L26.7098 0H52.8716ZM0.559082 0L26.7098 25.9978V0H0.559082ZM52.8716 51.9934V25.9978H26.7098L52.8716 51.9934ZM26.7098 51.9934V25.9978H0.559082L26.7098 51.9934Z" fill="white"/>
</g>
</svg>
